<svg height="464pt" viewBox="0 -20 464 464" width="464pt" xmlns="http://www.w3.org/2000/svg"><path d="m272 48h192v376h-192zm0 0" fill="#f4b8d3"/><path d="m344 48h48v376h-48zm0 0" fill="#f76677"/><path d="m272 104h72v32h-72zm0 0" fill="#f98c96"/><path d="m392 104h72v32h-72zm0 0" fill="#f98c96"/><path d="m440 400h-48v-16h32v-56h16zm0 0" fill="#fff"/><path d="m424 160h16v16h-16zm0 0" fill="#fff"/><path d="m352 0h32c8.835938 0 16 7.164062 16 16v32h-64v-32c0-8.835938 7.164062-16 16-16zm0 0" fill="#f98c96"/><path d="m272 0h16c26.507812 0 48 21.492188 48 48h-16c-26.507812 0-48-21.492188-48-48zm0 0" fill="#f76677"/><path d="m416 48h-16c0-26.507812 21.492188-48 48-48h16c0 26.507812-21.492188 48-48 48zm0 0" fill="#f76677"/><path d="m104 144c-9.164062-8.007812-22.835938-8.007812-32 0-4.101562 2.609375-6.585938 7.136719-6.585938 12s2.484376 9.390625 6.585938 12l32 32 32-32c4.101562-2.609375 6.585938-7.136719 6.585938-12s-2.484376-9.390625-6.585938-12c-9.164062-8.007812-22.835938-8.007812-32 0zm0 0" fill="#e33e5c"/><path d="m48 240h52.359375c25.28125 1.261719 44.785156 22.714844 43.640625 48h-52.359375c-25.28125-1.261719-44.785156-22.714844-43.640625-48zm0 0" fill="#f98c96"/><path d="m304 240h-52.359375c-25.28125 1.261719-44.785156 22.714844-43.640625 48h52.359375c25.28125-1.261719 44.785156-22.714844 43.640625-48zm0 0" fill="#f98c96"/><path d="m144 240h64v48h-64zm0 0" fill="#dd3e46"/><path d="m0 288h344v104h-344zm0 0" fill="#87cee9"/><path d="m88 288h40v104h-40zm0 0" fill="#dd3e46"/><path d="m232 288h40v104h-40zm0 0" fill="#dd3e46"/><path d="m0 352h40v16h-40zm0 0" fill="#4da6ea"/><path d="m152 352h16v16h-16zm0 0" fill="#4da6ea"/><path d="m184.230469 55.503906c-11.453125-10.007812-28.542969-10.007812-40 0-5.164063 3.691406-8.230469 9.648438-8.230469 16 0 6.351563 3.066406 12.308594 8.230469 16l40 40 40-40c5.171875-3.6875 8.238281-9.648437 8.238281-16 0-6.351562-3.066406-12.3125-8.238281-16-11.453125-10.007812-28.542969-10.007812-40 0zm0 0" fill="#e33e5c"/></svg>